<svg xmlns="http://www.w3.org/2000/svg" viewBox="0 0 488.69 406.17"><defs><style>.cls-1{fill:#d81dde;}</style></defs><g id="Layer_2" data-name="Layer 2"><g id="Layer_1-2" data-name="Layer 1"><path class="cls-1" d="M244.41,243.16q-101.91,0-203.83,0a40.16,40.16,0,0,1-40.18-35c-2.49-20.4,10.07-39.41,30.22-43.75,8.8-1.9,18.18-1.5,27.29-1.5q195.09-.12,390.18,0A39.92,39.92,0,0,1,488.48,203c0,22.57-17.85,40.26-40.73,40.26H244.41Z"/><path class="cls-1" d="M244.84,325.75c67,0,134,.2,200.94-.12,20.22-.09,35.11,11.37,40.55,27.16A40.09,40.09,0,0,1,448.49,406c-46.48.17-93,.06-139.45.06l-224.91,0c-14.66,0-29.32.19-44,0C19.3,405.74,2.26,390.2.23,370a40.33,40.33,0,0,1,32.26-43.49,53,53,0,0,1,10.92-.73Q144.14,325.72,244.84,325.75Z"/><path class="cls-1" d="M244.48,80.36q-100.66,0-201.31,0c-20.78,0-34.88-9.72-41.23-28.25C-6.39,27.79,13.23.05,39,0Q190.19,0,341.44.05q53,0,106,0c18.83,0,34.6,11.73,39.79,29.66,4.79,16.51-2.39,34.79-17.61,44.66-6.77,4.39-14.31,6-22.32,6q-43-.09-85.93,0H244.48Z"/></g></g></svg>