<svg xmlns="http://www.w3.org/2000/svg" viewBox="0 0 280 262.5"><defs><style>.cls-1{fill:#443c91;}.cls-2{fill:#c82531;}.cls-3{fill:#dd9f3a;}</style></defs><g id="Layer_2" data-name="Layer 2"><g id="Layer_1-2" data-name="Layer 1"><rect width="280" height="262.5"/><path class="cls-1" d="M37.19,222.17q3.12-5.76,6.23-11.54c.28-.53.56-1.06.85-1.59a87.81,87.81,0,0,0,5.94-10.47l14.55-24.06a28.91,28.91,0,0,0,3.59-5.37l4.8-6.7,7.33-8.17c.66-.44,1.31-.9,2-1.3,1.4-.84,2.9-1.69,4.42-.47,1.36,1.09,1.16,2.75.67,4.16-.68,2-1.66,3.81-2.51,5.71a51.87,51.87,0,0,0-4.75,8.36,157.37,157.37,0,0,0-8.5,15,223.36,223.36,0,0,0-13.09,24.88c-1.21,2-2,4.12-.57,6.17s3.94,1.51,6.07,1a9.87,9.87,0,0,0,4.11-1.71,40.33,40.33,0,0,0,9.06-4.74l3-1.49c8.62-4.69,16.88-9.91,24.15-16.58a35,35,0,0,0,7.24-6.73,22.64,22.64,0,0,0,4.81-5.29,27.4,27.4,0,0,0,5.15-6.76A41,41,0,0,0,128,162.43a3,3,0,0,0,.72-2.13l.31-.87.24-1.2c1.71-5.49.26-9.76-4.42-12.72a24.65,24.65,0,0,0-8.92-3.4,51.39,51.39,0,0,0-11.42-1.87,60.36,60.36,0,0,0-12-.82,62.51,62.51,0,0,0-12.08-.33,85.73,85.73,0,0,0-12.1.13c-3.79-.27-7.63.06-11.33-1.09a.3.3,0,0,0-.1-.41l-.06-2.42C60.2,132,64.84,131.56,69,130l11.34-2.12c2.41-.33,4.88-.26,7.23-1a15.33,15.33,0,0,0,4.86-.45l12-.24,12,.72,12,2.23,12.06,3.84a39,39,0,0,1,8.24,5.52,31.31,31.31,0,0,1,3.19,5.92l.1,6-.06,1.22q-1.75,5.41-3.5,10.83-3.31,6-6.62,12.08l-1.44,2.21L132,187l-3.49,3.56-9,7.93a9.42,9.42,0,0,0-3,2.33,276,276,0,0,1-24.89,15.61L68.91,226.89l-24.73,8.28-12,2.12a1.76,1.76,0,0,1-1.54-2.44l2.07-4.36A58.46,58.46,0,0,0,37.19,222.17Z"/><path class="cls-2" d="M115.69,115.31c-1-.07-2.19.8-3-.5.79-1.71,2.76-2.16,3.83-3.57a87,87,0,0,0,11.68-9,.29.29,0,0,0,.36-.26,142,142,0,0,0,14.36-12.23c7.74-7.24,15.3-14.66,21-23.71l.76-1.27A29.86,29.86,0,0,0,170.11,54c1.76-5.35.06-8.89-5.43-11.33l-.79-.24-1-.44a3.64,3.64,0,0,0-2.41-.68c-6.48-2-13.16-2.62-19.89-2.92a60.72,60.72,0,0,0-12-.66,74.23,74.23,0,0,0-12-.3c-3-.49-6,.12-9-.68-1-.27-2-.66-2.15-1.82A2.26,2.26,0,0,1,107,32.56c1.67-.89,3.41-1.63,5.13-2.43a7.28,7.28,0,0,0,3.22-.87,1.2,1.2,0,0,0,1.33-.43v0l12.51-2.11,11.46-1,12,.09a4.08,4.08,0,0,0,2.44.27l.58.05,9,1.11,12,2.89,1.29.41c4,2,8,4.08,10.87,7.77.6,1.21,1.19,2.43,1.79,3.64,1,4.07.48,8.07-.47,12.06l-1.3,3.66L184.57,66c-2.21,3-4.34,6-6.66,8.87-5.26,6.5-11.73,11.72-18.15,17l-1.49,1-5.62,3.83-8.63,5.3A10.53,10.53,0,0,0,140.6,104l-12.06,6-9.8,4.18A6.33,6.33,0,0,0,115.69,115.31Z"/><path class="cls-3" d="M173.78,138.32c-1.93-3.49-4.4-6.64-6-10.35-4.51-10.41-2.39-17.23,7.36-23.08,1.54-.93,3.13-1.76,4.7-2.63h0a20.6,20.6,0,0,0,5.4-1.82l3-.76.58-.08,12.08-1.72,12-.15,12.07.84L237,100.36c1.62.5,3.28.93,4.87,1.52,2.7,1,5.59,1.79,7,4.75a3.67,3.67,0,0,1-3.55,2.23c-2.77.17-5.53.37-8.29.57a97.21,97.21,0,0,0-12.07.1,56.89,56.89,0,0,0-11.44.55,80,80,0,0,0-18.41,2.67c-8.91,2.48-10.07,6.32-4.21,13.4a.76.76,0,0,0,.26.16,98.49,98.49,0,0,0,9.59,12.15,138.16,138.16,0,0,0,11.49,14.38,86,86,0,0,0,7.28,9.61,42.5,42.5,0,0,0,5.39,7.32,20.9,20.9,0,0,0,3.17,4.67,78.87,78.87,0,0,1,5.81,12.12c.57,4.09.73,8.14-1.13,12a29.11,29.11,0,0,1-7.8,7.41L215,210.58l-.12-.11-.13.08-.59.19-1.25.37-.59.14-11.43,2-12.09.75-12-.22L164.7,213l-12-1.45c-4.95-1.07-10.07-1.47-14.82-3.37-1.86-.74-4.75-1.08-4.47-3.65s3.19-2,5.14-2.35c.69-.12,1.38-.17,2.07-.26a74.75,74.75,0,0,0,12-.14c4,.6,8.07-.23,12.11-.22s8.06.27,12.05-.55a122.59,122.59,0,0,0,24.09-2.44,19.92,19.92,0,0,0,6.65-1.54c5-1.86,6.4-5.61,4.13-10.49-4.36-9.09-11-16.53-17.47-24.08a29.3,29.3,0,0,0-5.41-6.39c-1.3-2.2-3.23-3.86-5-5.69l-7.08-8.3Z"/></g></g></svg>